<svg width="340" height="340" viewBox="0 0 340 340" fill="none" xmlns="http://www.w3.org/2000/svg">
<path d="M126.075 287.582C124.778 286.465 124.152 284.666 124.622 282.903C132.815 251.902 136.009 234.012 129.623 205.413C123.961 197.1 93.4272 150.059 114.124 131.674C116.511 129.558 119.441 128.828 122.373 129.616C124.163 130.097 125.891 131.195 127.593 132.811C123.84 115.671 119.765 96.4928 118.049 86.5656C116.074 75.1493 113.997 54.9151 122.309 47.7178C125.944 44.5689 130.098 43.5408 134 44.8287C140.436 46.9575 145.099 54.8116 148.237 68.8535C149.748 75.6154 151.444 84.0454 153.148 92.55C154.787 100.706 156.756 110.51 158.495 118.216C159.382 112.806 160.478 106.206 162.08 98.9813C163.174 94.066 164.208 89.0931 165.216 84.2562C169.586 63.2737 172.495 50.1003 177.095 43.9765C181.147 38.5744 189.549 34.5773 196.04 37.5331C200.414 39.5252 204.975 44.8804 201.94 59.0906C200.561 65.539 199.198 72.9254 197.755 80.7432C194.863 96.4218 191.652 113.829 187.481 127.846C190.565 127.481 194.082 127.646 197.489 129.092C201.862 130.944 205.189 134.457 207.402 139.534C212.148 138.631 219.638 138.191 225.363 142.454C230.356 146.147 232.625 152.283 232.223 160.667C231.149 183.006 221.601 214.996 198.122 238.573C197.69 246.603 195.874 280.601 194.176 316.047C194.053 318.595 191.897 320.557 189.348 320.434C186.796 320.308 184.835 318.151 184.961 315.605C186.907 274.997 189.008 236.288 189.008 236.288C189.068 235.129 189.565 234.034 190.401 233.226C212.902 211.407 221.999 181.209 223.011 160.223C223.254 155.086 222.121 151.542 219.872 149.862C215.943 146.914 208.512 148.531 205.982 149.405C204.78 149.819 203.45 149.722 202.316 149.13C201.195 148.537 200.352 147.5 200.015 146.279C198.753 141.71 196.702 138.795 193.918 137.593C189.796 135.818 184.286 137.877 182.511 138.821C180.831 139.713 178.766 139.488 177.324 138.248C177.31 138.236 177.3 138.227 177.289 138.218C175.849 136.948 175.332 134.932 176.002 133.135C181.33 118.913 185.236 97.7392 188.682 79.0543C190.139 71.17 191.511 63.724 192.916 57.146C194.595 49.2877 193.187 46.3597 192.222 45.9249C190.579 45.1744 186.53 46.7803 184.48 49.5094C180.883 54.2982 177.511 70.4774 174.257 86.1242C173.239 91.0011 172.198 96.0171 171.097 100.975C169.46 108.34 168.353 115.131 167.465 120.577C165.707 131.338 164.98 135.79 161.777 137.758C160.432 138.586 158.794 138.784 157.289 138.311C153.27 137.038 152.046 133.933 144.102 94.3605C142.406 85.924 140.729 77.5711 139.231 70.8573C135.812 55.5505 131.573 53.7413 131.107 53.5897C130.395 53.3551 129.468 53.7257 128.349 54.6931C125.15 57.4625 124.632 70.4892 127.145 84.987C130.569 104.809 144.056 164.281 144.193 164.879C144.739 167.279 143.3 169.687 140.928 170.343C138.555 170.999 136.075 169.693 135.31 167.341C130.588 153.026 123.28 139.267 119.968 138.524C107.254 150.115 129.057 188.39 137.717 200.889C138.054 201.374 138.292 201.919 138.426 202.492C145.77 234.667 141.483 255.222 133.541 285.252C132.892 287.712 130.364 289.184 127.9 288.531C127.204 288.358 126.586 288.021 126.075 287.582Z" fill="black"/>
</svg>
