<svg width="340" height="340" viewBox="0 0 340 340" fill="none" xmlns="http://www.w3.org/2000/svg">
<path d="M243.169 129.731C241.305 137.679 238.513 145.381 235.909 151.231C232.668 158.524 227.087 167.791 221.696 176.755C215.343 187.315 208.774 198.226 206.3 205.401C205.293 208.303 202.007 230.948 200.048 244.476C199.291 249.688 193.793 298.57 193.258 302.104C192.829 304.62 190.526 306.36 188.005 305.973C185.483 305.59 183.75 303.235 184.132 300.718C184.662 297.202 190.16 248.339 190.913 243.149C194.067 221.469 196.395 205.861 197.573 202.392C200.363 194.297 207.188 182.957 213.787 171.995C219.041 163.273 224.47 154.251 227.479 147.482C235.348 129.793 239.57 107.235 232.657 101.628C231.773 100.908 231.341 100.85 231.337 100.849C229.498 101.555 227.306 107.687 224.612 119.099C224.318 120.41 224.04 121.596 223.796 122.596C223.75 122.775 218.9 140.265 210.975 141.555C208.353 141.983 205.843 140.764 204.266 138.289C201.34 133.707 202.744 126.286 204.684 116.01C205.987 109.12 207.461 101.318 207.14 95.3079C207.029 93.2342 206.949 91.0873 206.869 88.9213C206.581 81.0944 206.044 66.5257 202.516 65.8218C201.484 65.6131 200.996 65.8352 200.656 66.073C199.289 67.0322 198.463 69.6872 198.212 71.0173C198.063 74.7269 196.552 108.562 192.961 123.21C192.108 126.665 185.855 133.219 180.615 132.663C177.905 132.374 174.952 130.312 174.8 125.384C174.709 122.495 174.061 117.518 173.307 111.757C171.947 101.366 170.088 87.1368 169.833 72.7386C169.592 59.0925 166.272 55.3185 164.86 54.3284C163.421 53.3275 161.972 53.7887 161.811 53.8459C161.409 53.9838 160.856 54.1196 160.429 54.1426C158.395 54.2631 157.616 54.9003 157.123 55.5053C155.851 57.0698 154.035 61.8627 156.15 76.3937C158.047 89.4279 163.438 132.318 153.383 137.194C151.245 138.228 148.942 138.186 146.904 137.073C141.564 134.153 139.349 123.992 137.505 108.548L137.376 107.48C136.123 97.1373 126.817 72.4213 122.161 71.5336C120.537 71.2239 119.172 71.7286 118.001 73.0845C115.812 75.6095 114.258 81.4452 117.068 89.6169C118.05 92.4826 119.541 96.4155 121.262 100.962C126.99 116.094 134.835 136.812 136.119 149.267C136.754 155.374 136.759 161.902 132.038 163.966C128.709 165.427 125.406 163.544 123.425 161.297C122.977 160.803 111.24 147.889 104.837 139.737C99.7967 133.318 94.9158 129.855 93.3731 129.844C93.4078 129.919 93.0441 130.459 92.6996 131.929C92.6227 132.257 92.5442 132.632 92.4722 133.06C89.4331 151.459 119.079 175.019 130.758 182.541C131.322 182.905 131.802 183.387 132.162 183.955C135.956 189.95 144.616 257.285 143.562 272.718C143.393 275.257 141.187 277.185 138.646 277.007C136.103 276.832 134.182 274.633 134.357 272.091C135.361 257.315 127.046 195.928 124.655 189.57C117.385 184.69 79.0657 157.589 83.3686 131.556C84.6177 124.066 88.2399 121.616 91.0725 120.896C98.8242 118.908 107.572 128.277 112.095 134.035C116.277 139.363 123.056 147.062 127.055 151.536C127.024 151.125 126.985 150.685 126.934 150.213C125.773 138.953 117.86 118.058 112.624 104.226C110.861 99.5752 109.336 95.5443 108.332 92.6117C104.924 82.6835 105.947 72.8841 111.019 67.0393C114.339 63.2105 119.024 61.5455 123.879 62.4706C138.615 65.2813 146.477 105.964 146.528 106.37L146.661 107.462C147.701 116.205 148.734 121.486 149.619 124.665C150.62 114.372 149.059 91.8376 147.005 77.7334C144.918 63.4079 145.828 54.7575 149.954 49.6911C152.197 46.937 155.318 45.3554 159.238 44.9901C161.071 44.4483 165.419 43.676 169.819 46.5611C175.714 50.4272 178.818 59.1844 179.055 72.5877C179.299 86.4667 181.123 100.399 182.454 110.57C182.989 114.677 183.453 118.217 183.735 121.118C183.873 120.951 183.989 120.803 184.073 120.666C184.093 120.581 184.112 120.5 184.132 120.415C187.581 105.705 188.978 70.7386 188.99 70.3813C189.145 69.1376 190.242 62.1523 195.283 58.5658C197.864 56.7346 200.986 56.1158 204.31 56.7767C214.988 58.9059 215.545 73.9959 216.081 88.5881C216.159 90.7015 216.236 92.8003 216.344 94.8259C216.727 101.945 215.14 110.332 213.741 117.731C213.192 120.621 212.497 124.293 212.106 127.396C213.281 124.951 214.368 122.215 214.831 120.361C215.061 119.42 215.325 118.296 215.601 117.058C218.296 105.342 221.252 94.5927 228.412 92.1146C230.702 91.3244 234.303 91.088 238.465 94.4623C246.842 101.252 246.421 115.861 243.169 129.731Z" fill="black"/>
</svg>
