<svg width="340" height="340" viewBox="0 0 340 340" fill="none" xmlns="http://www.w3.org/2000/svg">
<path d="M152.782 304.004C155.26 303.398 156.771 300.885 156.148 298.416C146.204 258.316 130.836 179.675 130.708 179.194C130.552 178.594 130.28 178.033 129.901 177.547C107.698 148.655 102.73 123.198 99.2494 97.5072C98.2512 90.1505 99.842 83.8728 103.729 79.8202C106.442 76.992 109.53 76.0308 111.583 76.0373C112.558 76.971 114.227 79.9914 115.205 82.6524C115.965 84.7282 118.098 85.9683 120.278 85.6167C122.461 85.2619 124.087 83.3997 124.151 81.1979C124.463 70.3098 127.595 63.2412 132.949 61.2979C136.72 59.9252 140.763 61.4773 142.229 63.1261C143.323 64.3903 145.554 70.8217 147.003 76.9038C147.544 79.165 149.685 80.6698 151.998 80.4141C154.312 80.1583 156.078 78.2159 156.107 75.8889C156.11 75.6899 156.681 55.7566 166.443 55.5799C176.329 55.4008 177.659 65.619 177.778 66.7591C177.978 68.973 179.731 70.7261 181.945 70.9371C184.164 71.1484 186.207 69.7311 186.813 67.603C187.678 64.5693 191.284 55.3389 196.266 52.7268C197.731 51.9627 199.118 51.8785 200.768 52.4527C206.832 54.5588 206.825 63.4752 206.144 69.2119L195.82 101.85C195.053 104.28 196.397 106.871 198.829 107.641C201.259 108.408 203.854 107.068 204.617 104.635L212.834 78.6688C213.464 78.0924 213.99 77.3982 214.225 76.5147C214.357 76.0065 214.486 75.4623 214.605 74.9145C219.688 75.6132 221.014 77.9691 221.497 78.8505C228.09 91.0206 208.44 127.719 194.504 147.989C194.109 148.567 193.845 149.231 193.741 149.923C191.06 167.911 193.366 208.41 198.636 235.359C199.124 237.86 201.551 239.489 204.048 239.004C206.559 238.52 208.181 236.086 207.693 233.592C202.73 208.201 200.403 169.112 202.721 152.322C208.8 143.344 240.586 94.7128 229.61 74.4591C227.685 70.9078 223.699 66.8697 215.72 65.7901C215.925 56.815 213.375 47.0556 203.798 43.7352C199.783 42.3408 195.706 42.616 192.011 44.5364C187.944 46.6599 184.851 50.4811 182.612 54.2688C179.418 49.8197 174.243 46.2055 166.281 46.3476C158.14 46.5001 153.165 51.9301 150.295 58.596C149.914 57.9727 149.524 57.421 149.128 56.9768C145.317 52.6997 137.452 49.8315 129.794 52.6219C125.805 54.0786 119.739 57.9703 116.734 68.3571C115.596 67.5452 114.337 66.9971 112.958 66.8661C107.815 66.3874 102.299 68.4886 97.9846 72.5237C97.6746 72.8137 97.3674 73.1137 97.0731 73.4205C91.2005 79.5454 88.7224 88.536 90.1087 98.7397C93.7336 125.497 98.9133 152.038 122.014 182.416C123.782 189.205 138.015 263.613 147.191 300.627C147.803 303.113 150.306 304.62 152.782 304.004Z" fill="black"/>
</svg>
